<svg width="24" height="25" viewBox="0 0 24 25" fill="none" xmlns="http://www.w3.org/2000/svg">
<path d="M12.0002 22.7323C17.5232 22.7323 22.0002 18.2553 22.0002 12.7323C22.0002 7.2093 17.5232 2.7323 12.0002 2.7323C6.47724 2.7323 2.00024 7.2093 2.00024 12.7323C2.00024 18.2553 6.47724 22.7323 12.0002 22.7323Z" stroke="#808080" stroke-width="1.5" stroke-linecap="round" stroke-linejoin="round"/>
<path d="M12 15.7324C12.7956 15.7324 13.5587 15.4164 14.1213 14.8537C14.6839 14.2911 15 13.5281 15 12.7324C15 11.9368 14.6839 11.1737 14.1213 10.6111C13.5587 10.0485 12.7956 9.73242 12 9.73242C11.2044 9.73242 10.4413 10.0485 9.87868 10.6111C9.31607 11.1737 9 11.9368 9 12.7324C9 13.5281 9.31607 14.2911 9.87868 14.8537C10.4413 15.4164 11.2044 15.7324 12 15.7324V15.7324Z" stroke="#808080" stroke-width="1.5" stroke-linecap="round" stroke-linejoin="round"/>
<path d="M2.00024 12.7324H9.00024M15.0002 12.7324H22.0002" stroke="#808080" stroke-width="1.5"/>
</svg>
