<svg width="136" height="145" viewBox="0 0 136 145" fill="none" xmlns="http://www.w3.org/2000/svg">
<path fill-rule="evenodd" clip-rule="evenodd" d="M20.8343 12.3715C22.577 5.49092 28.8103 0.399902 36.2325 0.399902C41.7999 0.399902 46.6984 3.26435 49.5345 7.5999H54.1788C57.0642 4.63879 61.0953 2.7999 65.5562 2.7999C72.0964 2.7999 77.7135 6.75283 80.1486 12.3999H84.0369C86.4733 10.8789 89.3522 9.99989 92.4361 9.99989C98.9766 9.99989 104.593 13.9528 107.028 19.5999H117.602C117.692 19.5999 117.777 19.6242 117.85 19.6667C118.333 19.6225 118.822 19.5999 119.316 19.5999C128.088 19.5999 135.2 26.7112 135.2 35.4836V83.1116L135.2 83.1999L135.2 83.2882V83.9742C135.2 84.2647 135.192 84.5541 135.176 84.8421C134.22 117.883 104.51 144.4 67.9997 144.4C30.8862 144.4 0.799805 117 0.799805 83.1999C0.799805 66.8849 7.80993 52.0607 19.2367 41.0897C19.2082 56.9953 19.4769 73.4388 20.7153 73.1567C24.0314 72.4007 21.4405 23.136 20.8343 12.3715Z" fill="#CE416B"/>
</svg>
