<svg width="144" height="105" viewBox="0 0 144 105" fill="none" xmlns="http://www.w3.org/2000/svg">
<path fill-rule="evenodd" clip-rule="evenodd" d="M31.7154 104.194C31.6763 104.194 31.649 104.155 31.6619 104.118L68.4255 0.237884C68.4337 0.215299 68.4551 0.200195 68.479 0.200195H107.725C107.749 0.200195 107.771 0.215412 107.779 0.238137L143.997 104.118C144.009 104.155 143.982 104.194 143.943 104.194H32.8201H31.7154ZM0.0571056 104.6C0.0176198 104.6 -0.00971692 104.561 0.00413349 104.524L27.3809 31.4347C27.3892 31.4125 27.4103 31.3979 27.4339 31.3979H51.2212C51.2606 31.3979 51.2878 31.4369 51.2743 31.4738L24.8018 104.563C24.7937 104.585 24.7724 104.6 24.7486 104.6H0.0571056Z" fill="#D97845"/>
</svg>
