<svg width="130" height="139" viewBox="0 0 130 139" fill="none" xmlns="http://www.w3.org/2000/svg">
<path fill-rule="evenodd" clip-rule="evenodd" d="M21.4436 121.044C20.9493 120.579 20.4605 120.105 19.9774 119.622C-5.52763 94.117 -5.52762 52.7651 19.9774 27.2602C45.4823 1.75509 126.751 0.0488281 126.751 0.0488281C126.751 0.0488281 137.844 94.117 112.339 119.622C89.6875 142.274 54.5363 144.808 29.088 127.224L49.5933 102.061L82.373 94.9835L55.6152 92.3086L72.6201 74.9942L91.9769 70.7538L76.6707 66.2209L91.9769 38.6089L70.2053 63.0293L61.7979 51.1653L64.7575 70.7538L49.5933 87.8488L42.5641 66.2207V94.9835L21.4436 121.044Z" fill="#63BC5A"/>
</svg>
