<svg width="30" height="30" viewBox="0 0 30 30" fill="none" xmlns="http://www.w3.org/2000/svg">
<path d="M26.0498 5.76222C25.4113 5.12347 24.6533 4.61678 23.819 4.27107C22.9846 3.92537 22.0904 3.74744 21.1873 3.74744C20.2842 3.74744 19.3899 3.92537 18.5556 4.27107C17.7213 4.61678 16.9632 5.12347 16.3248 5.76222L14.9998 7.08722L13.6748 5.76222C12.3852 4.4726 10.6361 3.7481 8.81228 3.7481C6.98849 3.74811 5.2394 4.4726 3.94978 5.76222C2.66017 7.05183 1.93567 8.80093 1.93567 10.6247C1.93567 12.4485 2.66017 14.1976 3.94978 15.4872L5.27478 16.8122L14.9998 26.5372L24.7248 16.8122L26.0498 15.4872C26.6885 14.8488 27.1952 14.0907 27.5409 13.2564C27.8866 12.4221 28.0646 11.5278 28.0646 10.6247C28.0646 9.72161 27.8866 8.82735 27.5409 7.99302C27.1952 7.1587 26.6885 6.40066 26.0498 5.76222Z" fill="#FD525C" stroke="#FD525C" stroke-linecap="round" stroke-linejoin="round"/>
</svg>
