<svg width="28" height="28" viewBox="0 0 28 28" fill="none" xmlns="http://www.w3.org/2000/svg">
<path d="M24.3135 5.37814C23.7176 4.78198 23.0101 4.30906 22.2314 3.98641C21.4527 3.66375 20.6181 3.49768 19.7752 3.49768C18.9323 3.49768 18.0976 3.66375 17.3189 3.98641C16.5402 4.30906 15.8327 4.78198 15.2368 5.37814L14.0002 6.61481L12.7635 5.37814C11.5599 4.1745 9.92739 3.4983 8.22518 3.4983C6.52297 3.4983 4.89049 4.1745 3.68685 5.37814C2.48321 6.58179 1.80701 8.21427 1.80701 9.91648C1.80701 11.6187 2.48321 13.2512 3.68685 14.4548L4.92351 15.6915L14.0002 24.7681L23.0768 15.6915L24.3135 14.4548C24.9097 13.8589 25.3826 13.1514 25.7052 12.3727C26.0279 11.594 26.194 10.7594 26.194 9.91648C26.194 9.07358 26.0279 8.23893 25.7052 7.46023C25.3826 6.68153 24.9097 5.97403 24.3135 5.37814V5.37814Z" stroke="white" stroke-width="2.5" stroke-linecap="round" stroke-linejoin="round"/>
</svg>
