<svg width="14" height="14" viewBox="0 0 14 14" fill="none" xmlns="http://www.w3.org/2000/svg">
<g clip-path="url(#clip0_2384_266)">
<path fill-rule="evenodd" clip-rule="evenodd" d="M10.4293 1.52539L10.4695 5.05408L7.39171 6.53154L7.35376 3.19978L10.4293 1.52539Z" fill="#73CEC0"/>
<path fill-rule="evenodd" clip-rule="evenodd" d="M13.5145 7.08576L10.4678 8.82847L7.41919 7.083L10.4662 5.48248L13.5145 7.08576Z" fill="#73CEC0"/>
<path fill-rule="evenodd" clip-rule="evenodd" d="M6.87745 7.08576L3.83069 8.82847L0.782104 7.083L3.82911 5.48248L6.87745 7.08576Z" fill="#73CEC0"/>
<path fill-rule="evenodd" clip-rule="evenodd" d="M3.79639 1.51105L6.95871 3.07723L6.87786 6.49028L3.89203 5.01152L3.79639 1.51105Z" fill="#73CEC0"/>
<path fill-rule="evenodd" clip-rule="evenodd" d="M10.5157 12.607L7.35339 11.0408L7.43425 7.62778L10.4201 9.10656L10.5157 12.607Z" fill="#73CEC0"/>
<path fill-rule="evenodd" clip-rule="evenodd" d="M3.90568 12.6389L3.86548 9.11018L6.94325 7.63272L6.98121 10.9645L3.90568 12.6389Z" fill="#73CEC0"/>
</g>
<defs>
<clipPath id="clip0_2384_266">
<rect width="13.0588" height="13.0588" fill="white" transform="translate(0.627563 0.52951)"/>
</clipPath>
</defs>
</svg>
