<svg width="146" height="115" viewBox="0 0 146 115" fill="none" xmlns="http://www.w3.org/2000/svg">
<path fill-rule="evenodd" clip-rule="evenodd" d="M112.265 54.3613C112.257 54.3501 112.253 54.336 112.256 54.3223L121.442 0.753631C121.447 0.728965 121.468 0.710938 121.493 0.710938H124.401C124.423 0.710938 124.443 0.725478 124.449 0.746853L145.147 66.279C145.153 66.2993 145.146 66.3218 145.129 66.335L129.869 78.2496C129.846 78.2673 129.813 78.2628 129.796 78.2395L112.265 54.3613ZM0.851074 89.8734C0.851074 89.8956 0.865361 89.9153 0.886481 89.9223L32.344 100.208C32.3592 100.213 32.3761 100.21 32.3893 100.201L102.704 51.6577C102.716 51.6495 102.724 51.6369 102.726 51.6228L110.266 1.0283C110.271 0.99725 110.247 0.96935 110.216 0.96935H47.934C47.9185 0.96935 47.9042 0.976157 47.8944 0.987941L0.862894 57.7242C0.855254 57.7335 0.851074 57.7451 0.851074 57.7572V89.8734ZM45.4525 102.829L79.8193 114.086C79.8348 114.091 79.852 114.089 79.8652 114.079L120.781 84.7299C120.804 84.7138 120.81 84.6826 120.794 84.6596L105.456 61.8347C105.44 61.8108 105.408 61.8046 105.384 61.8209L45.4525 102.829Z" fill="#C5B78C"/>
</svg>
