<svg width="144" height="125" viewBox="0 0 144 125" fill="none" xmlns="http://www.w3.org/2000/svg">
<path fill-rule="evenodd" clip-rule="evenodd" d="M0.0143749 62.4876C-0.00478254 62.4549 -0.00479216 62.4144 0.0143493 62.3815L36.2236 0.51619C36.2424 0.484099 36.277 0.464355 36.3142 0.464355H108.083C108.12 0.464355 108.155 0.484268 108.174 0.51664L143.986 62.3821C144.004 62.4144 144.004 62.4547 143.986 62.487L108.174 124.283C108.155 124.315 108.12 124.335 108.083 124.335H36.3142C36.277 124.335 36.2424 124.316 36.2236 124.284L0.0143749 62.4876ZM105.361 62.3998C105.361 80.8183 90.4297 95.7496 72.0112 95.7496C53.5927 95.7496 38.6615 80.8183 38.6615 62.3998C38.6615 43.981 53.5927 29.05 72.0112 29.05C90.4297 29.05 105.361 43.981 105.361 62.3998Z" fill="#5A8EA2"/>
</svg>
